<svg xmlns="http://www.w3.org/2000/svg" version="1.1" xmlns:xlink="http://www.w3.org/1999/xlink" xmlns:svgjs="http://svgjs.dev/svgjs" width="2000" height="752" viewBox="0 0 2000 752"><g transform="matrix(1,0,0,1,-1.2194509398979108,1.2010953960287907)"><svg viewBox="0 0 396 149" data-background-color="#0a1627" preserveAspectRatio="xMidYMid meet" height="752" width="2000" xmlns="http://www.w3.org/2000/svg" xmlns:xlink="http://www.w3.org/1999/xlink"><g id="tight-bounds" transform="matrix(1,0,0,1,0.24145128609978883,-0.23798299735145179)"><svg viewBox="0 0 395.52 149.4759659947029" height="149.4759659947029" width="395.52"><g><svg viewBox="0 0 395.52 149.4759659947029" height="149.4759659947029" width="395.52"><g><svg viewBox="0 0 395.52 149.4759659947029" height="149.4759659947029" width="395.52"><g id="textblocktransform"><svg viewBox="0 0 395.52 149.4759659947029" height="149.4759659947029" width="395.52" id="textblock"><g><svg viewBox="0 0 395.52 102.38338816270196" height="102.38338816270196" width="395.52"><g transform="matrix(1,0,0,1,0,0)"><svg width="395.52" viewBox="0.5952779222269999 -36.5099989184 148.78472207777298 37.5099989184" height="102.38338816270196" data-palette-color="#7600ff"><g class="wordmark-text-0" data-fill-palette-color="primary" id="text-0"><path d="M7.25-16.65L7.25-16.65Q6.85-14.95 6.13-13.08 5.4-11.2 4.5-9.6L4.5-9.6Q4.5-9.5 4.38-9.28 4.25-9.05 4.05-9.05L4.05-9.05Q3.95-9.05 3.93-9.35 3.9-9.65 3.95-9.75L3.95-9.75Q3.95-10.55 4.15-11.88 4.35-13.2 4.65-14.05L4.65-14.05Q4.75-14.35 4.98-15.5 5.2-16.65 5.38-18.07 5.55-19.5 5.58-20.83 5.6-22.15 5.25-22.8L5.25-22.8 5.25-23Q5.45-23.15 5.7-22.9L5.7-22.9Q6.35-22.35 6.73-21.55 7.1-20.75 7.28-19.88 7.45-19 7.43-18.15 7.4-17.3 7.25-16.65ZM9.2-16.85L9.2-16.85Q9.75-17.55 10.25-17.85 10.75-18.15 11.25-18.35L11.25-18.35Q11.3-18.35 11.5-18.4 11.7-18.45 11.8-18.3L11.8-18.3Q11.9-18.15 11.75-17.95 11.6-17.75 11.5-17.65L11.5-17.65Q11.15-17.3 10.73-16.88 10.3-16.45 9.95-16.05L9.95-16.05Q9.45-15.5 9.15-14.78 8.85-14.05 8.7-13.3L8.7-13.3Q9.55-14.2 10.33-15 11.1-15.8 12-16.5L12-16.5Q13.15-17.35 14-18.7 14.85-20.05 15.2-22.65L15.2-22.65Q15.3-22.9 15.45-22.95 15.6-23 15.6-22.6L15.6-22.6Q15.75-19.7 15-18 14.25-16.3 12.75-15.15L12.75-15.15Q11.95-14.55 11.15-13.85 10.35-13.15 9.63-12.3 8.9-11.45 8.3-10.3 7.7-9.15 7.25-7.65L7.25-7.65Q6.9-6.5 6.55-5.48 6.2-4.45 5.8-3.5L5.8-3.5Q5.7-3.15 5.5-3.15L5.5-3.15Q5.35-3.2 5.35-3.65L5.35-3.65Q5.1-6.05 5.68-8.43 6.25-10.8 7.05-13.35L7.05-13.35Q7.4-14.6 7.88-15.85 8.35-17.1 8.3-18.7L8.3-18.7Q8.3-19.25 8.75-19.85 9.2-20.45 9.85-20.98 10.5-21.5 11.2-21.88 11.9-22.25 12.4-22.4L12.4-22.4Q12.85-22.55 12.85-22.35 12.85-22.15 12.55-21.85L12.55-21.85Q11.5-20.9 10.43-19.6 9.35-18.3 9.2-16.85ZM4.85-0.05L4.85-0.05Q4.8 0 4.78-0.03 4.75-0.05 4.5-0.2L4.5-0.2Q3-1.3 2.15-2.6 1.3-3.9 0.93-5.28 0.55-6.65 0.6-8.03 0.65-9.4 0.95-10.7L0.95-10.7Q1.35-12.45 1.93-14.18 2.5-15.9 3-17.53 3.5-19.15 3.75-20.73 4-22.3 3.75-23.75L3.75-23.75Q3.75-23.85 3.9-23.9L3.9-23.9Q3.95-23.9 4-23.83 4.05-23.75 4.1-23.7L4.1-23.7Q5.05-22.1 5.05-20.43 5.05-18.75 4.6-17.03 4.15-15.3 3.48-13.53 2.8-11.75 2.4-9.95L2.4-9.95Q1.9-7.65 2.33-5.05 2.75-2.45 4.65-0.4L4.65-0.4Q4.75-0.25 4.85-0.2 4.95-0.15 4.85-0.05ZM6.35 0L6.35 0Q6.25 0 6.15-0.05L6.15-0.05 5.95-0.15Q5.25-0.6 4.7-1.13 4.15-1.65 3.75-2.65L3.75-2.65Q3.6-3 3.5-3.58 3.4-4.15 3.38-4.65 3.35-5.15 3.43-5.5 3.5-5.85 3.7-5.8L3.7-5.8Q3.85-5.8 4.03-5.4 4.2-5 4.3-4.6L4.3-4.6Q4.4-4.05 4.53-3.55 4.65-3.05 4.85-2.65L4.85-2.65Q5.4-1.4 6.3-0.25L6.3-0.25Q6.4 0 6.35 0ZM14.5-22.45L14.5-22.45Q14.5-21.4 13.9-20.6 13.3-19.8 12.45-19.25L12.45-19.25Q12.3-19.15 12.25-19.28 12.2-19.4 12.2-19.45L12.2-19.45Q12.2-19.75 12.45-20.18 12.7-20.6 13.03-21.08 13.35-21.55 13.65-22.05 13.95-22.55 14.05-22.95L14.05-22.95Q14.2-23.2 14.35-22.95 14.5-22.7 14.5-22.45ZM29.8-20.4L29.8-20.4Q30.2-19.9 30.42-19.15 30.65-18.4 30.6-17.53 30.55-16.65 30.2-15.7 29.85-14.75 29.1-13.85L29.1-13.85Q27.65-12.15 25.92-11.23 24.2-10.3 22.8-10.3L22.8-10.3Q21.95-10.3 22.8-10.6L22.8-10.6Q23.25-10.75 23.87-11.08 24.5-11.4 25.2-11.88 25.9-12.35 26.62-13 27.35-13.65 27.95-14.5L27.95-14.5Q28.95-15.9 29.12-17.23 29.3-18.55 28.6-19.25L28.6-19.25Q28-19.85 27.2-19.93 26.4-20 24.8-19.05L24.8-19.05Q23.35-18.2 22.2-16.95 21.05-15.7 20.05-14.3L20.05-14.3Q19.5-13.6 19.32-13.6 19.15-13.6 19.45-14.5L19.45-14.5Q20.05-16.25 21.12-17.75 22.2-19.25 23.7-20.3L23.7-20.3Q24.8-21.05 25.72-21.35 26.65-21.65 27.42-21.6 28.2-21.55 28.8-21.23 29.4-20.9 29.8-20.4ZM32.5-16.9L32.5-16.9Q32.3-15.7 31.87-14.88 31.45-14.05 30.92-13.48 30.4-12.9 29.87-12.55 29.35-12.2 28.95-11.9L28.95-11.9Q28.75-11.75 28.65-11.85 28.55-11.95 28.8-12.2L28.8-12.2Q29.7-12.95 30.62-14.23 31.55-15.5 31.6-17.05L31.6-17.05Q31.6-19.7 30.3-21.1L30.3-21.1Q29-22.5 27.05-22.33 25.1-22.15 23-20.8L23-20.8Q21.65-19.95 20.62-18.82 19.6-17.7 18.85-16.43 18.1-15.15 17.62-13.8 17.15-12.45 16.95-11.1L16.95-11.1Q16.75-9.8 16.57-8.3 16.4-6.8 16.57-5.35 16.75-3.9 17.5-2.58 18.25-1.25 19.85-0.3L19.85-0.3Q20.1-0.15 20.37-0.1 20.65-0.05 20.65 0L20.65 0Q20.65 0.1 20.4 0.13 20.15 0.15 19.85 0.05L19.85 0.05Q18.6-0.2 17.72-0.98 16.85-1.75 16.3-2.75 15.75-3.75 15.45-4.85 15.15-5.95 15.1-6.85L15.1-6.85Q14.8-10.8 16.2-14.65L16.2-14.65Q16.5-15.45 16.97-16.45 17.45-17.45 18.15-18.48 18.85-19.5 19.8-20.48 20.75-21.45 21.95-22.2L21.95-22.2Q23.1-22.9 24.35-23.25 25.6-23.6 26.85-23.58 28.1-23.55 29.2-23.13 30.3-22.7 31.15-21.85L31.15-21.85Q31.9-21.05 32.32-19.8 32.75-18.55 32.5-16.9ZM27.95-18.7L27.95-18.7Q28.55-18 28.1-16.53 27.65-15.05 26-13.55L26-13.55Q25.1-12.7 24.25-12.18 23.4-11.65 22.1-11.25L22.1-11.25Q21.55-9.35 21.4-7.5 21.25-5.65 21.5-4.5L21.5-4.5Q21.55-4.05 21.82-3.63 22.1-3.2 22.62-2.98 23.15-2.75 24-2.8 24.85-2.85 26.1-3.35L26.1-3.35Q26.45-3.5 26.52-3.43 26.6-3.35 26.2-3.1L26.2-3.1Q25.3-2.4 24.3-2.13 23.3-1.85 22.42-1.95 21.55-2.05 20.92-2.55 20.3-3.05 20.1-3.9L20.1-3.9Q19.7-5.65 19.75-7.55 19.8-9.45 20.32-11.3 20.85-13.15 21.82-14.78 22.8-16.4 24.25-17.55L24.25-17.55Q26.95-19.7 27.95-18.7ZM27.45-2.75L27.45-2.75Q27.1-2.25 26.57-1.78 26.05-1.3 25.37-0.93 24.7-0.55 23.97-0.3 23.25-0.05 22.5-0.05L22.5-0.05Q21.2-0.05 20.07-0.63 18.95-1.2 18.35-2.95L18.35-2.95Q18.25-3.15 18.25-3.33 18.25-3.5 18.35-3.5L18.35-3.5Q18.55-3.6 18.75-3.38 18.95-3.15 19.15-2.9L19.15-2.9Q19.7-2.25 20.57-1.75 21.45-1.25 22.25-1.25L22.25-1.25Q23.75-1.25 24.85-1.7 25.95-2.15 26.95-2.9L26.95-2.9Q27.2-3.05 27.52-3.2 27.85-3.35 27.45-2.75ZM26.75-17.35L26.75-17.35Q26.55-17.75 25.3-16.7L25.3-16.7Q24.15-15.8 23.47-14.63 22.8-13.45 22.3-12.05L22.3-12.05Q23.25-12.5 24.05-13.08 24.85-13.65 25.55-14.2L25.55-14.2Q26.3-14.85 26.65-15.9 27-16.95 26.75-17.35ZM45.74-2.1L45.74-2.1Q47.55-2.4 49.22-3.2 50.89-4 52.24-5.25L52.24-5.25Q52.34-5.3 52.64-5.6 52.94-5.9 53.05-5.8L53.05-5.8Q53.14-5.7 52.99-5.5 52.84-5.3 52.74-5.15L52.74-5.15Q51.74-3.7 50.12-2.78 48.49-1.85 46.74-1.3L46.74-1.3Q45.3-0.9 43.64-1.03 41.99-1.15 40.54-1.85L40.54-1.85Q40.09-2.05 39.99-2.18 39.89-2.3 39.99-2.35 40.09-2.4 40.32-2.4 40.54-2.4 40.74-2.35L40.74-2.35Q41.3-2.25 42.02-2.18 42.74-2.1 43.47-2.08 44.19-2.05 44.8-2.05 45.39-2.05 45.74-2.1ZM39.04-16.8L39.04-16.8Q38.79-15.05 38.79-13.38 38.79-11.7 39.02-10.23 39.24-8.75 39.72-7.6 40.19-6.45 40.89-5.7L40.89-5.7Q41.69-4.9 42.87-4.48 44.05-4.05 45.42-4.05 46.8-4.05 48.32-4.45 49.84-4.85 51.34-5.7L51.34-5.7Q51.64-5.9 51.74-5.8L51.74-5.8Q51.84-5.7 51.67-5.58 51.49-5.45 51.34-5.35L51.34-5.35Q50.05-4.35 48.59-3.75 47.14-3.15 45.67-3 44.19-2.85 42.82-3.18 41.44-3.5 40.34-4.4L40.34-4.4Q39.29-5.3 38.64-6.58 37.99-7.85 37.67-9.38 37.34-10.9 37.29-12.55 37.24-14.2 37.39-15.8L37.39-15.8Q37.59-18.35 38.39-20.95 39.19-23.55 40.52-25.75 41.84-27.95 43.69-29.6 45.55-31.25 47.84-31.9L47.84-31.9Q48.99-32.2 50.19-32.15 51.39-32.1 52.42-31.7 53.44-31.3 54.19-30.53 54.94-29.75 55.19-28.65L55.19-28.65Q55.44-27.45 54.99-26.33 54.55-25.2 53.74-24.38 52.94-23.55 51.94-23.2 50.94-22.85 50.05-23.2L50.05-23.2Q49.99-23.2 49.97-23.35 49.94-23.5 50.14-23.45L50.14-23.45Q50.74-23.35 51.52-23.73 52.3-24.1 52.92-24.75 53.55-25.4 53.92-26.3 54.3-27.2 54.14-28.15L54.14-28.15Q53.99-28.85 53.52-29.38 53.05-29.9 52.3-30.23 51.55-30.55 50.62-30.65 49.69-30.75 48.69-30.55L48.69-30.55Q46.8-30.2 45.17-28.88 43.55-27.55 42.3-25.65 41.04-23.75 40.19-21.43 39.34-19.1 39.04-16.8ZM42.99-0.25L42.99-0.25Q43.55-0.2 44.12-0.2 44.69-0.2 44.69-0.05L44.69-0.05Q44.69 0 44.49 0.03 44.3 0.05 44.07 0.05 43.84 0.05 43.59 0.05 43.34 0.05 43.3 0.05L43.3 0.05Q41.74 0.05 40.24-0.4 38.74-0.85 37.47-1.68 36.19-2.5 35.19-3.7 34.19-4.9 33.69-6.45L33.69-6.45Q32.69-9.5 32.54-12.4 32.39-15.3 32.79-18.1L32.79-18.1Q32.99-19.7 33.57-21.73 34.14-23.75 35.12-25.85 36.09-27.95 37.57-30 39.04-32.05 41.09-33.75L41.09-33.75Q43.24-35.55 45.87-36.15 48.49-36.75 50.89-36.35 53.3-35.95 55.14-34.68 56.99-33.4 57.59-31.45L57.59-31.45Q57.64-31.35 57.69-31.03 57.74-30.7 57.64-30.6L57.64-30.6Q57.59-30.55 57.49-30.85 57.39-31.15 57.3-31.25L57.3-31.25Q55.19-34.1 52.55-34.88 49.89-35.65 47.3-35.02 44.69-34.4 42.39-32.73 40.09-31.05 38.74-29L38.74-29Q36.39-25.45 35.17-21.45 33.94-17.45 34.04-13.2L34.04-13.2Q34.09-11.25 34.47-9.1 34.84-6.95 35.94-5L35.94-5Q37.04-3 38.97-1.68 40.89-0.35 42.99-0.25ZM35.79-19.05L35.79-19.05Q36.19-21.7 37.07-24.2 37.94-26.7 39.37-28.78 40.79-30.85 42.89-32.35 44.99-33.85 47.84-34.45L47.84-34.45Q48.84-34.65 50.09-34.63 51.34-34.6 52.59-34.18 53.84-33.75 54.92-32.9 55.99-32.05 56.69-30.55L56.69-30.55Q57.34-29.1 57.14-27.7 56.94-26.3 56.3-25.18 55.64-24.05 54.69-23.3 53.74-22.55 52.84-22.45L52.84-22.45Q52.3-22.35 52.24-22.48 52.19-22.6 52.8-22.8L52.8-22.8Q53.74-23.1 54.72-24.33 55.69-25.55 55.89-27.45L55.89-27.45Q55.99-28.4 55.64-29.33 55.3-30.25 54.64-30.95 53.99-31.65 53.09-32.15 52.19-32.65 51.19-32.8L51.19-32.8Q49.05-33.1 47.24-32.5 45.44-31.9 44.12-30.98 42.8-30.05 41.97-29.15 41.14-28.25 40.94-27.95L40.94-27.95Q39.39-26 38.24-23.73 37.09-21.45 36.34-18.95L36.34-18.95Q36.34-18.9 36.27-18.6 36.19-18.3 36.12-17.98 36.04-17.65 35.94-17.38 35.84-17.1 35.79-17.1L35.79-17.1Q35.69-17.1 35.69-17.4 35.69-17.7 35.69-18.03 35.69-18.35 35.74-18.65 35.79-18.95 35.79-19.05ZM63.44-16.65L63.44-16.65Q63.04-14.95 62.32-13.08 61.59-11.2 60.69-9.6L60.69-9.6Q60.69-9.5 60.57-9.28 60.44-9.05 60.24-9.05L60.24-9.05Q60.14-9.05 60.12-9.35 60.09-9.65 60.14-9.75L60.14-9.75Q60.14-10.55 60.34-11.88 60.54-13.2 60.84-14.05L60.84-14.05Q60.94-14.35 61.17-15.5 61.39-16.65 61.57-18.07 61.74-19.5 61.77-20.83 61.79-22.15 61.44-22.8L61.44-22.8 61.44-23Q61.64-23.15 61.89-22.9L61.89-22.9Q62.54-22.35 62.92-21.55 63.29-20.75 63.47-19.88 63.64-19 63.62-18.15 63.59-17.3 63.44-16.65ZM65.39-16.85L65.39-16.85Q65.94-17.55 66.44-17.85 66.94-18.15 67.44-18.35L67.44-18.35Q67.49-18.35 67.69-18.4 67.89-18.45 67.99-18.3L67.99-18.3Q68.09-18.15 67.94-17.95 67.79-17.75 67.69-17.65L67.69-17.65Q67.34-17.3 66.92-16.88 66.49-16.45 66.14-16.05L66.14-16.05Q65.64-15.5 65.34-14.78 65.04-14.05 64.89-13.3L64.89-13.3Q65.74-14.2 66.52-15 67.29-15.8 68.19-16.5L68.19-16.5Q69.34-17.35 70.19-18.7 71.04-20.05 71.39-22.65L71.39-22.65Q71.49-22.9 71.64-22.95 71.79-23 71.79-22.6L71.79-22.6Q71.94-19.7 71.19-18 70.44-16.3 68.94-15.15L68.94-15.15Q68.14-14.55 67.34-13.85 66.54-13.15 65.82-12.3 65.09-11.45 64.49-10.3 63.89-9.15 63.44-7.65L63.44-7.65Q63.09-6.5 62.74-5.48 62.39-4.45 61.99-3.5L61.99-3.5Q61.89-3.15 61.69-3.15L61.69-3.15Q61.54-3.2 61.54-3.65L61.54-3.65Q61.29-6.05 61.87-8.43 62.44-10.8 63.24-13.35L63.24-13.35Q63.59-14.6 64.07-15.85 64.54-17.1 64.49-18.7L64.49-18.7Q64.49-19.25 64.94-19.85 65.39-20.45 66.04-20.98 66.69-21.5 67.39-21.88 68.09-22.25 68.59-22.4L68.59-22.4Q69.04-22.55 69.04-22.35 69.04-22.15 68.74-21.85L68.74-21.85Q67.69-20.9 66.62-19.6 65.54-18.3 65.39-16.85ZM61.04-0.05L61.04-0.05Q60.99 0 60.97-0.03 60.94-0.05 60.69-0.2L60.69-0.2Q59.19-1.3 58.34-2.6 57.49-3.9 57.12-5.28 56.74-6.65 56.79-8.03 56.84-9.4 57.14-10.7L57.14-10.7Q57.54-12.45 58.12-14.18 58.69-15.9 59.19-17.53 59.69-19.15 59.94-20.73 60.19-22.3 59.94-23.75L59.94-23.75Q59.94-23.85 60.09-23.9L60.09-23.9Q60.14-23.9 60.19-23.83 60.24-23.75 60.29-23.7L60.29-23.7Q61.24-22.1 61.24-20.43 61.24-18.75 60.79-17.03 60.34-15.3 59.67-13.53 58.99-11.75 58.59-9.95L58.59-9.95Q58.09-7.65 58.52-5.05 58.94-2.45 60.84-0.4L60.84-0.4Q60.94-0.25 61.04-0.2 61.14-0.15 61.04-0.05ZM62.54 0L62.54 0Q62.44 0 62.34-0.05L62.34-0.05 62.14-0.15Q61.44-0.6 60.89-1.13 60.34-1.65 59.94-2.65L59.94-2.65Q59.79-3 59.69-3.58 59.59-4.15 59.57-4.65 59.54-5.15 59.62-5.5 59.69-5.85 59.89-5.8L59.89-5.8Q60.04-5.8 60.22-5.4 60.39-5 60.49-4.6L60.49-4.6Q60.59-4.05 60.72-3.55 60.84-3.05 61.04-2.65L61.04-2.65Q61.59-1.4 62.49-0.25L62.49-0.25Q62.59 0 62.54 0ZM70.69-22.45L70.69-22.45Q70.69-21.4 70.09-20.6 69.49-19.8 68.64-19.25L68.64-19.25Q68.49-19.15 68.44-19.28 68.39-19.4 68.39-19.45L68.39-19.45Q68.39-19.75 68.64-20.18 68.89-20.6 69.22-21.08 69.54-21.55 69.84-22.05 70.14-22.55 70.24-22.95L70.24-22.95Q70.39-23.2 70.54-22.95 70.69-22.7 70.69-22.45ZM85.99-20.4L85.99-20.4Q86.39-19.9 86.61-19.15 86.84-18.4 86.79-17.53 86.74-16.65 86.39-15.7 86.04-14.75 85.29-13.85L85.29-13.85Q83.84-12.15 82.11-11.23 80.39-10.3 78.99-10.3L78.99-10.3Q78.14-10.3 78.99-10.6L78.99-10.6Q79.44-10.75 80.06-11.08 80.69-11.4 81.39-11.88 82.09-12.35 82.81-13 83.54-13.65 84.14-14.5L84.14-14.5Q85.14-15.9 85.31-17.23 85.49-18.55 84.79-19.25L84.79-19.25Q84.19-19.85 83.39-19.93 82.59-20 80.99-19.05L80.99-19.05Q79.54-18.2 78.39-16.95 77.24-15.7 76.24-14.3L76.24-14.3Q75.69-13.6 75.52-13.6 75.34-13.6 75.64-14.5L75.64-14.5Q76.24-16.25 77.31-17.75 78.39-19.25 79.89-20.3L79.89-20.3Q80.99-21.05 81.91-21.35 82.84-21.65 83.61-21.6 84.39-21.55 84.99-21.23 85.59-20.9 85.99-20.4ZM88.69-16.9L88.69-16.9Q88.49-15.7 88.06-14.88 87.64-14.05 87.11-13.48 86.59-12.9 86.06-12.55 85.54-12.2 85.14-11.9L85.14-11.9Q84.94-11.75 84.84-11.85 84.74-11.95 84.99-12.2L84.99-12.2Q85.89-12.95 86.81-14.23 87.74-15.5 87.79-17.05L87.79-17.05Q87.79-19.7 86.49-21.1L86.49-21.1Q85.19-22.5 83.24-22.33 81.29-22.15 79.19-20.8L79.19-20.8Q77.84-19.95 76.81-18.82 75.79-17.7 75.04-16.43 74.29-15.15 73.81-13.8 73.34-12.45 73.14-11.1L73.14-11.1Q72.94-9.8 72.77-8.3 72.59-6.8 72.77-5.35 72.94-3.9 73.69-2.58 74.44-1.25 76.04-0.3L76.04-0.3Q76.29-0.15 76.56-0.1 76.84-0.05 76.84 0L76.84 0Q76.84 0.1 76.59 0.13 76.34 0.15 76.04 0.05L76.04 0.05Q74.79-0.2 73.91-0.98 73.04-1.75 72.49-2.75 71.94-3.75 71.64-4.85 71.34-5.95 71.29-6.85L71.29-6.85Q70.99-10.8 72.39-14.65L72.39-14.65Q72.69-15.45 73.16-16.45 73.64-17.45 74.34-18.48 75.04-19.5 75.99-20.48 76.94-21.45 78.14-22.2L78.14-22.2Q79.29-22.9 80.54-23.25 81.79-23.6 83.04-23.58 84.29-23.55 85.39-23.13 86.49-22.7 87.34-21.85L87.34-21.85Q88.09-21.05 88.52-19.8 88.94-18.55 88.69-16.9ZM84.14-18.7L84.14-18.7Q84.74-18 84.29-16.53 83.84-15.05 82.19-13.55L82.19-13.55Q81.29-12.7 80.44-12.18 79.59-11.65 78.29-11.25L78.29-11.25Q77.74-9.35 77.59-7.5 77.44-5.65 77.69-4.5L77.69-4.5Q77.74-4.05 78.02-3.63 78.29-3.2 78.81-2.98 79.34-2.75 80.19-2.8 81.04-2.85 82.29-3.35L82.29-3.35Q82.64-3.5 82.72-3.43 82.79-3.35 82.39-3.1L82.39-3.1Q81.49-2.4 80.49-2.13 79.49-1.85 78.61-1.95 77.74-2.05 77.11-2.55 76.49-3.05 76.29-3.9L76.29-3.9Q75.89-5.65 75.94-7.55 75.99-9.45 76.52-11.3 77.04-13.15 78.02-14.78 78.99-16.4 80.44-17.55L80.44-17.55Q83.14-19.7 84.14-18.7ZM83.64-2.75L83.64-2.75Q83.29-2.25 82.77-1.78 82.24-1.3 81.56-0.93 80.89-0.55 80.16-0.3 79.44-0.05 78.69-0.05L78.69-0.05Q77.39-0.05 76.27-0.63 75.14-1.2 74.54-2.95L74.54-2.95Q74.44-3.15 74.44-3.33 74.44-3.5 74.54-3.5L74.54-3.5Q74.74-3.6 74.94-3.38 75.14-3.15 75.34-2.9L75.34-2.9Q75.89-2.25 76.77-1.75 77.64-1.25 78.44-1.25L78.44-1.25Q79.94-1.25 81.04-1.7 82.14-2.15 83.14-2.9L83.14-2.9Q83.39-3.05 83.72-3.2 84.04-3.35 83.64-2.75ZM82.94-17.35L82.94-17.35Q82.74-17.75 81.49-16.7L81.49-16.7Q80.34-15.8 79.66-14.63 78.99-13.45 78.49-12.05L78.49-12.05Q79.44-12.5 80.24-13.08 81.04-13.65 81.74-14.2L81.74-14.2Q82.49-14.85 82.84-15.9 83.19-16.95 82.94-17.35ZM108.04-17.6L108.04-17.6Q107.64-15.6 106.69-13.6 105.74-11.6 104.89-9.85L104.89-9.85Q104.84-9.75 104.66-9.5 104.49-9.25 104.39-9.25L104.39-9.25Q104.24-9.3 104.24-9.58 104.24-9.85 104.24-9.95L104.24-9.95Q104.29-10.4 104.41-11.03 104.54-11.65 104.64-12.33 104.74-13 104.86-13.63 104.99-14.25 105.14-14.75L105.14-14.75Q105.59-16.45 105.89-17.68 106.19-18.9 106.34-19.9 106.49-20.9 106.51-21.8 106.54-22.7 106.39-23.75L106.39-23.75Q106.34-24.15 106.44-24.25L106.44-24.25Q106.54-24.3 106.69-24.15 106.84-24 106.94-23.85L106.94-23.85Q107.79-22.5 108.09-20.88 108.39-19.25 108.04-17.6ZM109.04-21.25L109.24-20.95Q109.89-20 109.89-18.45 109.89-16.9 109.59-15.28 109.29-13.65 108.84-12.15 108.39-10.65 108.19-9.75L108.19-9.75Q107.79-8 107.09-6.25 106.39-4.5 105.89-3.15L105.89-3.15Q105.84-3 105.74-2.83 105.64-2.65 105.54-2.65L105.54-2.65Q105.44-2.65 105.44-2.85 105.44-3.05 105.44-3.2L105.44-3.2Q105.29-5.95 106.04-8.58 106.79-11.2 107.64-13.9L107.64-13.9Q108.14-15.55 108.59-17.28 109.04-19 108.99-21.05L108.99-21.05Q108.99-21.25 109.04-21.25L109.04-21.25ZM104.54-21.8L104.54-21.8Q101.49-20.55 99.36-18.23 97.24-15.9 96.09-13L96.09-13Q95.59-11.7 95.34-10.68 95.09-9.65 94.94-8.45L94.94-8.45Q94.89-8.2 95.09-7.95 95.29-7.7 95.49-7.95L95.49-7.95Q96.39-9.05 97.79-10.75 99.19-12.45 100.59-14.35 101.99-16.25 103.11-18.2 104.24-20.15 104.54-21.8ZM101.19-4.85L101.19-4.85Q100.44-3.8 99.74-2.9 99.04-2 98.19-1.33 97.34-0.65 96.29-0.25 95.24 0.15 93.89 0.2L93.89 0.2Q91.64 0.3 90.46-0.95 89.29-2.2 88.84-4 88.39-5.8 88.51-7.73 88.64-9.65 89.04-10.9L89.04-10.9Q89.59-12.65 90.36-14.23 91.14-15.8 92.01-17.07 92.89-18.35 93.81-19.28 94.74-20.2 95.64-20.7L95.64-20.7Q95.69-20.7 95.86-20.8 96.04-20.9 96.04-20.75L96.04-20.75Q96.09-20.75 95.99-20.6 95.89-20.45 95.79-20.35L95.79-20.35Q93.19-17.65 91.66-14.25 90.14-10.85 89.94-7.25L89.94-7.25Q89.89-6.35 90.01-5.3 90.14-4.25 90.51-3.33 90.89-2.4 91.59-1.78 92.29-1.15 93.49-1.15L93.49-1.15Q94.44-1.15 95.24-1.48 96.04-1.8 96.74-2.33 97.44-2.85 98.01-3.48 98.59-4.1 99.04-4.65L99.04-4.65Q100.04-5.9 100.89-7.25L100.89-7.25Q100.89-8.25 101.01-9.2 101.14-10.15 101.39-11.1L101.39-11.1Q101.54-11.8 101.66-12.23 101.79-12.65 101.91-13.03 102.04-13.4 102.16-13.83 102.29-14.25 102.54-14.95L102.54-14.95Q101.74-13.55 100.96-12.33 100.19-11.1 99.31-9.98 98.44-8.85 97.51-7.78 96.59-6.7 95.49-5.6L95.49-5.6Q94.64-4.75 94.09-5.05 93.54-5.35 93.44-6.45L93.44-6.45Q93.34-8.15 93.61-9.75 93.89-11.35 94.59-13.1L94.59-13.1Q95.24-14.7 96.21-16.2 97.19-17.7 98.46-18.93 99.74-20.15 101.29-21.03 102.84-21.9 104.59-22.2L104.59-22.2Q104.69-22.75 104.76-23.15 104.84-23.55 104.89-23.95L104.89-23.95Q104.99-24.5 104.99-24.5L104.99-24.5Q105.09-24.55 105.21-24.4 105.34-24.25 105.44-24L105.44-24Q106.04-22.35 105.84-20.7 105.64-19.05 105.11-17.35 104.59-15.65 103.89-13.88 103.19-12.1 102.74-10.3L102.74-10.3Q102.14-7.75 102.41-5.03 102.69-2.3 104.54-0.1L104.54-0.1Q104.69 0.1 104.69 0.1L104.69 0.1Q104.64 0.15 104.39 0L104.39 0Q102.94-0.9 102.21-2.18 101.49-3.45 101.19-4.85ZM102.94-22.55L102.94-22.55Q103.04-22.45 102.91-22.4 102.79-22.35 102.39-22.25L102.39-22.25Q101.74-22.05 100.81-21.5 99.89-20.95 98.86-20.1 97.84-19.25 96.84-18.13 95.84-17 95.09-15.7L95.09-15.7Q94.34-14.35 93.81-13.05 93.29-11.75 92.96-10.68 92.64-9.6 92.49-8.83 92.34-8.05 92.34-7.75L92.34-7.75Q92.34-7 92.34-6.18 92.34-5.35 92.54-4.7 92.74-4.05 93.24-3.7 93.74-3.35 94.74-3.5L94.74-3.5Q94.79-3.5 94.99-3.58 95.19-3.65 95.39-3.73 95.59-3.8 95.76-3.85 95.94-3.9 95.99-3.9L95.99-3.9Q96.04-3.8 95.91-3.65 95.79-3.5 95.59-3.33 95.39-3.15 95.21-3 95.04-2.85 94.99-2.8L94.99-2.8Q93.74-2.05 92.89-2.35 92.04-2.65 91.56-3.48 91.09-4.3 90.91-5.43 90.74-6.55 90.79-7.45L90.79-7.45Q90.89-9.2 91.34-10.93 91.79-12.65 92.49-14.4L92.49-14.4Q93.04-15.75 94.14-17.18 95.24-18.6 96.61-19.8 97.99-21 99.49-21.78 100.99-22.55 102.39-22.6L102.39-22.6Q102.89-22.6 102.94-22.55ZM105.89-0.1L105.89-0.1Q105.99 0.05 105.94 0.1L105.94 0.1Q105.79 0.1 105.54 0L105.54 0Q105.39-0.1 104.74-0.6 104.09-1.1 103.79-2.2L103.79-2.2Q103.69-2.6 103.61-3.23 103.54-3.85 103.54-4.4 103.54-4.95 103.61-5.35 103.69-5.75 103.84-5.75L103.84-5.75Q103.99-5.75 104.16-5.15 104.34-4.55 104.39-4.4L104.39-4.4Q104.54-3.7 104.66-3.18 104.79-2.65 104.94-2.2L104.94-2.2Q105.14-1.65 105.46-0.95 105.79-0.25 105.89-0.1ZM124.74-22.2L124.74-22.2Q124.79-22.15 124.79-21.98 124.79-21.8 124.74-21.7L124.74-21.7Q124.29-20.25 123.19-19.65 122.09-19.05 121.24-19.05L121.24-19.05Q120.19-19.05 119.09-19.23 117.99-19.4 116.99-20.15L116.99-20.15Q116.89-20.25 116.74-20.35 116.59-20.45 116.59-20.55L116.59-20.55Q116.59-20.7 116.74-20.78 116.89-20.85 116.99-20.9L116.99-20.9Q117.44-21 118.16-21.08 118.89-21.15 119.59-21.05L119.59-21.05Q120.09-20.95 120.79-20.95 121.49-20.95 122.21-21.05 122.94-21.15 123.54-21.38 124.14-21.6 124.44-22.05L124.44-22.05Q124.59-22.25 124.74-22.2ZM125.09-23.75L125.09-23.75 124.94-23.5Q124.09-22.4 123.14-22.08 122.19-21.75 121.14-21.8 120.09-21.85 119.01-22.08 117.94-22.3 116.89-22.35L116.89-22.35Q115.49-22.4 114.09-21.5 112.69-20.6 111.69-18.35L111.69-18.35Q111.54-18.05 111.49-18.23 111.44-18.4 111.49-18.55L111.49-18.55Q111.89-20.05 112.44-21.05 112.99-22.05 113.61-22.68 114.24-23.3 114.94-23.6 115.64-23.9 116.39-24L116.39-24Q117.24-26.85 117.71-29.58 118.19-32.3 117.79-34.75L117.79-34.75Q117.79-34.95 117.79-34.95L117.79-34.95Q117.89-35 117.99-34.9 118.09-34.8 118.09-34.75L118.09-34.75Q119.19-32.35 118.99-29.63 118.79-26.9 117.99-23.9L117.99-23.9Q118.24-23.85 118.39-23.85 118.54-23.85 118.74-23.85L118.74-23.85Q118.99-25.15 119.21-26.63 119.44-28.1 119.56-29.45 119.69-30.8 119.64-31.9 119.59-33 119.29-33.55L119.29-33.55Q119.14-34 119.29-34L119.29-34Q119.39-34 119.44-33.9 119.49-33.8 119.59-33.7L119.59-33.7Q120.29-33 120.69-31.8 121.09-30.6 121.24-29.25 121.39-27.9 121.34-26.58 121.29-25.25 121.04-24.25L121.04-24.25 120.84-23.45Q120.99-23.35 121.14-23.35 121.29-23.35 121.44-23.3L121.44-23.3Q121.74-24.8 121.96-26.3 122.19-27.8 122.14-29.45L122.14-29.45Q122.14-29.8 122.19-29.8L122.19-29.8Q122.29-29.8 122.34-29.65 122.39-29.5 122.44-29.4L122.44-29.4Q123.04-28.3 123.01-26.65 122.99-25 122.74-23.15L122.74-23.15Q123.84-23.15 124.84-23.75L124.84-23.75Q125.09-23.9 125.09-23.75ZM114.74-20.35L114.74-20.35Q114.74-20.1 114.46-19.85 114.19-19.6 114.04-19.5L114.04-19.5Q113.79-19.3 113.46-19.03 113.14-18.75 112.89-18.45L112.89-18.45Q112.64-18.05 112.41-17.75 112.19-17.45 112.04-16.9L112.04-16.9Q111.99-16.8 111.91-16.73 111.84-16.65 111.79-16.7L111.79-16.7Q111.64-16.85 111.79-17.35L111.79-17.35Q111.99-18.1 112.19-18.57 112.39-19.05 112.94-19.6L112.94-19.6Q113.14-19.8 113.44-20 113.74-20.2 114.04-20.35 114.34-20.5 114.54-20.5 114.74-20.5 114.74-20.35ZM118.64-0.25L118.64-0.25Q118.89-0.35 118.84-0.2 118.79-0.05 118.69 0L118.69 0Q117.79 0.3 116.79-0.1 115.79-0.5 114.94-1.35 114.09-2.2 113.49-3.33 112.89-4.45 112.74-5.55L112.74-5.55Q112.49-7.9 112.69-10.1 112.89-12.3 113.44-14.45L113.44-14.45 114.29-17.6Q113.99-17.6 113.69-17.75L113.69-17.75Q113.34-17.85 113.34-18L113.34-18Q113.34-18.1 113.69-18.3L113.69-18.3Q115.09-19 116.51-18.9 117.94-18.8 119.39-18.55L119.39-18.55Q120.29-18.4 121.21-18.32 122.14-18.25 123.24-18.7L123.24-18.7Q123.34-18.8 123.44-18.75L123.44-18.75Q123.54-18.65 123.39-18.4L123.39-18.4Q123.09-17.75 122.54-17.45 121.99-17.15 121.39-17L121.39-17Q120.99-15.7 120.69-14.68 120.39-13.65 120.19-12.95L120.19-12.95Q119.64-10.55 118.91-8.08 118.19-5.6 117.94-3.9L117.94-3.9Q117.84-3.35 117.74-3.3L117.74-3.3Q117.64-3.25 117.54-3.5 117.44-3.75 117.39-3.9L117.39-3.9Q117.19-5.35 117.31-6.93 117.44-8.5 117.79-10.15 118.14-11.8 118.59-13.48 119.04-15.15 119.54-16.85L119.54-16.85Q119.29-16.85 119.04-16.85 118.79-16.85 118.54-16.9L118.54-16.9Q118.14-15.85 117.71-14.83 117.29-13.8 116.89-12.9L116.89-12.9Q116.84-12.8 116.66-12.43 116.49-12.05 116.39-12.05L116.39-12.05Q116.19-12.1 116.24-12.53 116.29-12.95 116.29-13.1L116.29-13.1Q116.39-13.85 116.61-14.85 116.84-15.85 117.04-17L117.04-17Q116.79-17.05 116.49-17.07 116.19-17.1 115.89-17.2L115.89-17.2Q115.59-16.2 115.31-15.25 115.04-14.3 114.79-13.35L114.79-13.35Q114.39-11.6 114.19-9.63 113.99-7.65 114.19-5.55L114.19-5.55Q114.29-4.6 114.71-3.6 115.14-2.6 115.74-1.8 116.34-1 117.11-0.55 117.89-0.1 118.64-0.25ZM119.09-1.35L119.09-1.35Q119.34-1.55 119.39-1.38 119.44-1.2 119.19-1.05L119.19-1.05Q118.99-0.9 118.66-0.83 118.34-0.75 117.94-0.8 117.54-0.85 117.09-1.1 116.64-1.35 116.24-1.9L116.24-1.9Q115.89-2.35 115.66-3.2 115.44-4.05 115.34-4.88 115.24-5.7 115.29-6.3 115.34-6.9 115.54-6.9L115.54-6.9Q115.79-6.9 115.91-6.2 116.04-5.5 116.14-5.05L116.14-5.05Q116.34-4.25 116.69-3.4 117.04-2.55 117.44-2.05L117.44-2.05Q117.94-1.4 118.34-1.28 118.74-1.15 119.09-1.35ZM137.63-20.4L137.63-20.4Q138.03-19.9 138.26-19.15 138.48-18.4 138.43-17.53 138.38-16.65 138.03-15.7 137.68-14.75 136.93-13.85L136.93-13.85Q135.48-12.15 133.76-11.23 132.03-10.3 130.63-10.3L130.63-10.3Q129.78-10.3 130.63-10.6L130.63-10.6Q131.08-10.75 131.71-11.08 132.33-11.4 133.03-11.88 133.73-12.35 134.46-13 135.18-13.65 135.78-14.5L135.78-14.5Q136.78-15.9 136.96-17.23 137.13-18.55 136.43-19.25L136.43-19.25Q135.83-19.85 135.03-19.93 134.23-20 132.63-19.05L132.63-19.05Q131.18-18.2 130.03-16.95 128.88-15.7 127.88-14.3L127.88-14.3Q127.33-13.6 127.16-13.6 126.98-13.6 127.28-14.5L127.28-14.5Q127.88-16.25 128.96-17.75 130.03-19.25 131.53-20.3L131.53-20.3Q132.63-21.05 133.56-21.35 134.48-21.65 135.26-21.6 136.03-21.55 136.63-21.23 137.23-20.9 137.63-20.4ZM140.33-16.9L140.33-16.9Q140.13-15.7 139.71-14.88 139.28-14.05 138.76-13.48 138.23-12.9 137.71-12.55 137.18-12.2 136.78-11.9L136.78-11.9Q136.58-11.75 136.48-11.85 136.38-11.95 136.63-12.2L136.63-12.2Q137.53-12.95 138.46-14.23 139.38-15.5 139.43-17.05L139.43-17.05Q139.43-19.7 138.13-21.1L138.13-21.1Q136.83-22.5 134.88-22.33 132.93-22.15 130.83-20.8L130.83-20.8Q129.48-19.95 128.46-18.82 127.43-17.7 126.68-16.43 125.93-15.15 125.46-13.8 124.98-12.45 124.78-11.1L124.78-11.1Q124.58-9.8 124.41-8.3 124.23-6.8 124.41-5.35 124.58-3.9 125.33-2.58 126.08-1.25 127.68-0.3L127.68-0.3Q127.93-0.15 128.21-0.1 128.48-0.05 128.48 0L128.48 0Q128.48 0.1 128.23 0.13 127.98 0.15 127.68 0.05L127.68 0.05Q126.43-0.2 125.56-0.98 124.68-1.75 124.13-2.75 123.58-3.75 123.28-4.85 122.98-5.95 122.93-6.85L122.93-6.85Q122.63-10.8 124.03-14.65L124.03-14.65Q124.33-15.45 124.81-16.45 125.28-17.45 125.98-18.48 126.68-19.5 127.63-20.48 128.58-21.45 129.78-22.2L129.78-22.2Q130.93-22.9 132.18-23.25 133.43-23.6 134.68-23.58 135.93-23.55 137.03-23.13 138.13-22.7 138.98-21.85L138.98-21.85Q139.73-21.05 140.16-19.8 140.58-18.55 140.33-16.9ZM135.78-18.7L135.78-18.7Q136.38-18 135.93-16.53 135.48-15.05 133.83-13.55L133.83-13.55Q132.93-12.7 132.08-12.18 131.23-11.65 129.93-11.25L129.93-11.25Q129.38-9.35 129.23-7.5 129.08-5.65 129.33-4.5L129.33-4.5Q129.38-4.05 129.66-3.63 129.93-3.2 130.46-2.98 130.98-2.75 131.83-2.8 132.68-2.85 133.93-3.35L133.93-3.35Q134.28-3.5 134.36-3.43 134.43-3.35 134.03-3.1L134.03-3.1Q133.13-2.4 132.13-2.13 131.13-1.85 130.26-1.95 129.38-2.05 128.76-2.55 128.13-3.05 127.93-3.9L127.93-3.9Q127.53-5.65 127.58-7.55 127.63-9.45 128.16-11.3 128.68-13.15 129.66-14.78 130.63-16.4 132.08-17.55L132.08-17.55Q134.78-19.7 135.78-18.7ZM135.28-2.75L135.28-2.75Q134.93-2.25 134.41-1.78 133.88-1.3 133.21-0.93 132.53-0.55 131.81-0.3 131.08-0.05 130.33-0.05L130.33-0.05Q129.03-0.05 127.91-0.63 126.78-1.2 126.18-2.95L126.18-2.95Q126.08-3.15 126.08-3.33 126.08-3.5 126.18-3.5L126.18-3.5Q126.38-3.6 126.58-3.38 126.78-3.15 126.98-2.9L126.98-2.9Q127.53-2.25 128.41-1.75 129.28-1.25 130.08-1.25L130.08-1.25Q131.58-1.25 132.68-1.7 133.78-2.15 134.78-2.9L134.78-2.9Q135.03-3.05 135.36-3.2 135.68-3.35 135.28-2.75ZM134.58-17.35L134.58-17.35Q134.38-17.75 133.13-16.7L133.13-16.7Q131.98-15.8 131.31-14.63 130.63-13.45 130.13-12.05L130.13-12.05Q131.08-12.5 131.88-13.08 132.68-13.65 133.38-14.2L133.38-14.2Q134.13-14.85 134.48-15.9 134.83-16.95 134.58-17.35ZM146.18 1L146.18 1Q145.93 1 145.41 0.93 144.88 0.85 144.88 0.45L144.88 0.45Q144.88 0.3 145.33 0.08 145.78-0.15 146.33-0.55 146.88-0.95 147.33-1.63 147.78-2.3 147.78-3.35L147.78-3.35Q147.78-4.65 147.28-5.3L147.28-5.3Q147.18-5.45 147.03-5.63 146.88-5.8 146.93-5.85L146.93-5.85Q147.03-5.85 147.16-5.78 147.28-5.7 147.33-5.65L147.33-5.65Q148.33-5.1 148.85-4.23 149.38-3.35 149.38-2.55L149.38-2.55Q149.38-0.95 148.63 0.03 147.88 1 146.18 1ZM144.33-0.95L144.33-0.95Q143.73-0.7 143.73-1.25L143.73-1.25Q143.73-1.65 144.03-2.02 144.33-2.4 144.6-2.85 144.88-3.3 144.98-3.88 145.08-4.45 144.68-5.3L144.68-5.3Q144.58-5.55 144.33-5.85 144.08-6.15 144.18-6.2L144.18-6.2Q144.28-6.25 144.6-6.13 144.93-6 145.03-5.95L145.03-5.95Q145.88-5.55 146.31-4.75 146.73-3.95 146.73-3.35L146.73-3.35Q146.73-2.4 145.96-1.78 145.18-1.15 144.33-0.95ZM142.88-3.65L142.88-3.65Q142.88-3.9 143.03-4.23 143.18-4.55 143.53-4.55L143.53-4.55Q143.78-4.55 143.93-4.23 144.08-3.9 144.08-3.65L144.08-3.65Q144.08-3.45 143.93-3.13 143.78-2.8 143.53-2.8L143.53-2.8Q143.18-2.8 143.03-3.1 142.88-3.4 142.88-3.65Z" fill="#7600ff" data-fill-palette-color="primary"></path></g></svg></g></svg></g><g transform="matrix(1,0,0,1,0,126.55364890659999)"><svg viewBox="0 0 232.209792 22.922317088102893" height="22.922317088102893" width="232.209792"><g transform="matrix(1,0,0,1,0,0)"><svg width="232.209792" viewBox="1.9 -35.5 466.44 46.05" height="22.922317088102893" data-palette-color="#c1c1c1"><path d="M15.3-23.05L15.3-23.05 15.5-25.45Q15.5-25.45 14.83-25.55 14.15-25.65 13.25-25.6L13.25-25.6Q10.55-25.45 8.58-24.85 6.6-24.25 4.75-23.4L4.75-23.4 4.75-25.05 1.9-25.05 1.9 0 4.75 0 4.75-20.45Q5.45-20.9 6.45-21.38 7.45-21.85 8.6-22.23 9.75-22.6 10.95-22.83 12.15-23.05 13.2-23.1L13.2-23.1Q14.05-23.15 14.68-23.1 15.3-23.05 15.3-23.05ZM20.8-6.7L20.8-6.7 20.8-9.8 36.05-10.6 36.05-17.1Q36.05-19.9 34.97-21.75 33.9-23.6 31.92-24.55 29.95-25.5 27.25-25.5L27.25-25.5Q24.6-25.5 22.5-24.55 20.4-23.6 19.2-21.7 18-19.8 18-16.95L18-16.95 18-6.7Q18-4.6 18.62-3.2 19.25-1.8 20.4-0.95 21.55-0.1 23.15 0.25 24.75 0.6 26.65 0.6L26.65 0.6Q28.55 0.6 30.75-0.03 32.95-0.65 34.8-1.75L34.8-1.75 33.7-3.9Q31.85-2.95 30.05-2.38 28.25-1.8 26.4-1.8L26.4-1.8Q25.2-1.8 24.17-2.08 23.15-2.35 22.4-2.93 21.65-3.5 21.22-4.42 20.8-5.35 20.8-6.7ZM33.25-17.45L33.25-17.45 33.25-13.1 20.8-12.55 20.8-16.9Q20.8-18.9 21.57-20.3 22.35-21.7 23.8-22.43 25.25-23.15 27.2-23.15L27.2-23.15Q28.95-23.15 30.3-22.45 31.65-21.75 32.45-20.48 33.25-19.2 33.25-17.45ZM55.15-21.65L55.15-21.65 55.84-23.9Q54.3-24.6 52.57-25.05 50.85-25.5 49.15-25.5L49.15-25.5Q46.05-25.5 43.97-24.3 41.9-23.1 40.87-20.95 39.85-18.8 39.85-15.95L39.85-15.95 39.85-8.7Q39.85-5.5 41.02-3.48 42.2-1.45 44.35-0.48 46.5 0.5 49.35 0.55L49.35 0.55Q51 0.6 52.7 0.38 54.4 0.15 55.95-0.25L55.95-0.25 55.4-2.75Q55.45-2.75 54.95-2.65 54.45-2.55 53.57-2.4 52.7-2.25 51.62-2.15 50.55-2.05 49.45-2.05L49.45-2.05Q47.65-2.1 46.35-2.53 45.05-2.95 44.2-3.8 43.35-4.65 42.97-6.03 42.6-7.4 42.6-9.3L42.6-9.3 42.65-15.55Q42.7-17.7 43.35-19.38 44-21.05 45.45-22 46.9-22.95 49.25-22.95L49.25-22.95Q50.7-22.9 52.27-22.58 53.85-22.25 55.15-21.65ZM73.34-23.05L73.34-23.05 73.54-25.45Q73.54-25.45 72.87-25.55 72.19-25.65 71.29-25.6L71.29-25.6Q68.59-25.45 66.62-24.85 64.64-24.25 62.79-23.4L62.79-23.4 62.79-25.05 59.94-25.05 59.94 0 62.79 0 62.79-20.45Q63.49-20.9 64.49-21.38 65.49-21.85 66.64-22.23 67.79-22.6 68.99-22.83 70.19-23.05 71.24-23.1L71.24-23.1Q72.09-23.15 72.72-23.1 73.34-23.05 73.34-23.05ZM78.84-6.7L78.84-6.7 78.84-9.8 94.09-10.6 94.09-17.1Q94.09-19.9 93.02-21.75 91.94-23.6 89.97-24.55 87.99-25.5 85.29-25.5L85.29-25.5Q82.64-25.5 80.54-24.55 78.44-23.6 77.24-21.7 76.04-19.8 76.04-16.95L76.04-16.95 76.04-6.7Q76.04-4.6 76.67-3.2 77.29-1.8 78.44-0.95 79.59-0.1 81.19 0.25 82.79 0.6 84.69 0.6L84.69 0.6Q86.59 0.6 88.79-0.03 90.99-0.65 92.84-1.75L92.84-1.75 91.74-3.9Q89.89-2.95 88.09-2.38 86.29-1.8 84.44-1.8L84.44-1.8Q83.24-1.8 82.22-2.08 81.19-2.35 80.44-2.93 79.69-3.5 79.27-4.42 78.84-5.35 78.84-6.7ZM91.29-17.45L91.29-17.45 91.29-13.1 78.84-12.55 78.84-16.9Q78.84-18.9 79.62-20.3 80.39-21.7 81.84-22.43 83.29-23.15 85.24-23.15L85.24-23.15Q86.99-23.15 88.34-22.45 89.69-21.75 90.49-20.48 91.29-19.2 91.29-17.45ZM114.29-17.5L114.29-17.5Q113.14-18.2 111.71-18.8 110.29-19.4 108.74-19.78 107.19-20.15 105.54-20.15L105.54-20.15Q104.04-20.15 102.66-19.75 101.29-19.35 100.19-18.48 99.09-17.6 98.46-16.15 97.84-14.7 97.84-12.6L97.84-12.6 97.84-8.45Q97.84-5.7 98.71-3.9 99.59-2.1 101.11-1.13 102.64-0.15 104.71 0.2 106.79 0.55 109.19 0.5L109.19 0.5Q109.94 0.5 110.96 0.45 111.99 0.4 113.06 0.33 114.14 0.25 115.06 0.18 115.99 0.1 116.56 0.05 117.14 0 117.09 0L117.09 0 117.09-14.4Q117.09-17.5 116.59-19.63 116.09-21.75 114.91-23.03 113.74-24.3 111.74-24.88 109.74-25.45 106.69-25.45L106.69-25.45 106.59-23.3Q108.09-23.3 109.49-23.08 110.89-22.85 111.96-22.25 113.04-21.65 113.66-20.5 114.29-19.35 114.29-17.5ZM114.29-15.15L114.29-15.15 114.29-2.3Q114.29-2.3 114.06-2.27 113.84-2.25 113.39-2.23 112.94-2.2 112.29-2.13 111.64-2.05 110.81-2 109.99-1.95 108.99-1.9L108.99-1.9Q106.49-1.8 104.84-2.18 103.19-2.55 102.26-3.43 101.34-4.3 100.96-5.65 100.59-7 100.59-8.8L100.59-8.8 100.59-12.5Q100.59-14.2 101.06-15.25 101.54-16.3 102.29-16.82 103.04-17.35 103.84-17.55 104.64-17.75 105.29-17.75L105.29-17.75Q106.89-17.75 108.44-17.4 109.99-17.05 111.49-16.45 112.99-15.85 114.29-15.15ZM124.09-6.6L124.09-6.6 124.09-22.4 128.94-22.4 130.14-25 124.09-25 124.09-35 121.29-35 121.29-6.6Q121.29-3.7 122.54-1.95 123.79-0.2 126.54 0.65L126.54 0.65 127.39-1.5Q126.29-1.9 125.56-2.58 124.84-3.25 124.46-4.28 124.09-5.3 124.09-6.6ZM135.23-6.7L135.23-6.7 135.23-9.8 150.48-10.6 150.48-17.1Q150.48-19.9 149.41-21.75 148.33-23.6 146.36-24.55 144.38-25.5 141.68-25.5L141.68-25.5Q139.03-25.5 136.93-24.55 134.83-23.6 133.63-21.7 132.43-19.8 132.43-16.95L132.43-16.95 132.43-6.7Q132.43-4.6 133.06-3.2 133.68-1.8 134.83-0.95 135.98-0.1 137.58 0.25 139.18 0.6 141.08 0.6L141.08 0.6Q142.98 0.6 145.18-0.03 147.38-0.65 149.23-1.75L149.23-1.75 148.13-3.9Q146.28-2.95 144.48-2.38 142.68-1.8 140.83-1.8L140.83-1.8Q139.63-1.8 138.61-2.08 137.58-2.35 136.83-2.93 136.08-3.5 135.66-4.42 135.23-5.35 135.23-6.7ZM147.68-17.45L147.68-17.45 147.68-13.1 135.23-12.55 135.23-16.9Q135.23-18.9 136.01-20.3 136.78-21.7 138.23-22.43 139.68-23.15 141.63-23.15L141.63-23.15Q143.38-23.15 144.73-22.45 146.08-21.75 146.88-20.48 147.68-19.2 147.68-17.45ZM187.88-23.5L187.88-23.5 186.88-25.6Q185.73-25.2 184.95-24.43 184.18-23.65 183.8-22.63 183.43-21.6 183.43-20.45L183.43-20.45 183.43-8.7Q183.43-7.4 182.93-6.23 182.43-5.05 181.58-4.15 180.73-3.25 179.58-2.73 178.43-2.2 177.08-2.2L177.08-2.2Q175.93-2.2 174.78-2.48 173.63-2.75 172.68-3.4 171.73-4.05 171.15-5.2 170.58-6.35 170.58-8.1L170.58-8.1 170.58-25.05 167.73-25.05 167.73-7.9Q167.73-5.75 168.3-4.17 168.88-2.6 170-1.58 171.13-0.55 172.75-0.05 174.38 0.45 176.48 0.45L176.48 0.45Q177.73 0.45 179.03 0.13 180.33-0.2 181.48-0.85 182.63-1.5 183.43-2.5L183.43-2.5 183.43 3.05Q183.43 3.95 183.25 4.78 183.08 5.6 182.68 6.28 182.28 6.95 181.65 7.45 181.03 7.95 180.18 8.3L180.18 8.3 180.98 10.45Q182.88 9.8 184.03 8.9 185.18 8 185.7 6.58 186.23 5.15 186.23 3.1L186.23 3.1 186.23-20.4Q186.23-22 186.73-22.6 187.23-23.2 187.88-23.5ZM209.63-9.25L209.63-9.25 209.63-15.8Q209.63-20.4 207.28-23 204.93-25.6 200.48-25.6L200.48-25.6Q197.53-25.6 195.43-24.48 193.33-23.35 192.23-21.18 191.13-19 191.13-15.8L191.13-15.8 191.13-9.25Q191.13-6.55 192.18-4.35 193.23-2.15 195.35-0.83 197.48 0.5 200.58 0.5L200.58 0.5Q205.13 0.5 207.38-2.18 209.63-4.85 209.63-9.25ZM206.83-15.8L206.83-15.8 206.83-8.75Q206.83-6.7 206.15-5.18 205.48-3.65 204.08-2.83 202.68-2 200.58-2L200.58-2Q198.58-2 197.08-2.85 195.58-3.7 194.75-5.23 193.93-6.75 193.93-8.75L193.93-8.75 193.93-15.8Q193.93-18.2 194.68-19.83 195.43-21.45 196.9-22.28 198.38-23.1 200.58-23.1L200.58-23.1Q202.78-23.1 204.15-22.28 205.53-21.45 206.18-19.83 206.83-18.2 206.83-15.8ZM229.32-2.4L229.32-2.4 229.32 0 232.12 0 232.12-25.05 229.32-25.05 229.32-8.65Q229.32-7.3 228.82-6.15 228.32-5 227.4-4.1 226.47-3.2 225.22-2.7 223.97-2.2 222.47-2.2L222.47-2.2Q220.57-2.2 219.22-2.83 217.87-3.45 217.17-4.85 216.47-6.25 216.47-8.55L216.47-8.55 216.47-25.05 213.62-25.05 213.62-7.85Q213.62-6.15 214-4.8 214.37-3.45 215.1-2.45 215.82-1.45 216.9-0.8 217.97-0.15 219.35 0.18 220.72 0.5 222.37 0.5L222.37 0.5Q223.62 0.5 224.92 0.18 226.22-0.15 227.37-0.8 228.52-1.45 229.32-2.4ZM249.82-23.05L249.82-23.05 250.02-25.45Q250.02-25.45 249.34-25.55 248.67-25.65 247.77-25.6L247.77-25.6Q245.07-25.45 243.09-24.85 241.12-24.25 239.27-23.4L239.27-23.4 239.27-25.05 236.42-25.05 236.42 0 239.27 0 239.27-20.45Q239.97-20.9 240.97-21.38 241.97-21.85 243.12-22.23 244.27-22.6 245.47-22.83 246.67-23.05 247.72-23.1L247.72-23.1Q248.57-23.15 249.2-23.1 249.82-23.05 249.82-23.05ZM267.06-25.05L267.06 0 269.92 0 269.92-25.05 267.06-25.05ZM268.52-35.5L268.52-35.5Q267.87-35.5 267.34-35 266.81-34.5 266.81-33.8L266.81-33.8Q266.81-33.15 267.34-32.65 267.87-32.15 268.52-32.15L268.52-32.15Q269.22-32.15 269.72-32.65 270.22-33.15 270.22-33.8L270.22-33.8Q270.22-34.5 269.72-35 269.22-35.5 268.52-35.5ZM303.31-17.1L303.31-17.1 303.31 0 305.96 0 305.96-17.2Q305.96-19.2 305.46-20.75 304.96-22.3 303.94-23.35 302.91-24.4 301.39-24.93 299.86-25.45 297.76-25.45L297.76-25.45Q296.36-25.45 294.96-25.1 293.56-24.75 292.26-24.13 290.96-23.5 289.86-22.65L289.86-22.65Q289.21-23.55 288.24-24.18 287.26-24.8 285.99-25.13 284.71-25.45 283.11-25.45L283.11-25.45Q281.86-25.45 280.76-25.18 279.66-24.9 278.66-24.43 277.66-23.95 276.66-23.3L276.66-23.3 276.66-25 273.81-25 273.81 0 276.66 0 276.66-21.15Q277.71-21.75 278.61-22.15 279.51-22.55 280.49-22.75 281.46-22.95 282.61-22.95L282.61-22.95Q283.81-22.95 284.91-22.68 286.01-22.4 286.84-21.73 287.66-21.05 288.16-19.93 288.66-18.8 288.66-17.1L288.66-17.1 288.66 0 291.26 0 291.26-17.2Q291.26-18.25 291.14-19.18 291.01-20.1 290.71-20.9L290.71-20.9Q291.91-21.65 293.04-22.1 294.16-22.55 295.24-22.75 296.31-22.95 297.26-22.95L297.26-22.95Q298.46-22.95 299.54-22.68 300.61-22.4 301.46-21.73 302.31-21.05 302.81-19.93 303.31-18.8 303.31-17.1ZM326.36-17.5L326.36-17.5Q325.21-18.2 323.79-18.8 322.36-19.4 320.81-19.78 319.26-20.15 317.61-20.15L317.61-20.15Q316.11-20.15 314.74-19.75 313.36-19.35 312.26-18.48 311.16-17.6 310.54-16.15 309.91-14.7 309.91-12.6L309.91-12.6 309.91-8.45Q309.91-5.7 310.79-3.9 311.66-2.1 313.19-1.13 314.71-0.15 316.79 0.2 318.86 0.55 321.26 0.5L321.26 0.5Q322.01 0.5 323.04 0.45 324.06 0.4 325.14 0.33 326.21 0.25 327.14 0.18 328.06 0.1 328.64 0.05 329.21 0 329.16 0L329.16 0 329.16-14.4Q329.16-17.5 328.66-19.63 328.16-21.75 326.99-23.03 325.81-24.3 323.81-24.88 321.81-25.45 318.76-25.45L318.76-25.45 318.66-23.3Q320.16-23.3 321.56-23.08 322.96-22.85 324.04-22.25 325.11-21.65 325.74-20.5 326.36-19.35 326.36-17.5ZM326.36-15.15L326.36-15.15 326.36-2.3Q326.36-2.3 326.14-2.27 325.91-2.25 325.46-2.23 325.01-2.2 324.36-2.13 323.71-2.05 322.89-2 322.06-1.95 321.06-1.9L321.06-1.9Q318.56-1.8 316.91-2.18 315.26-2.55 314.34-3.43 313.41-4.3 313.04-5.65 312.66-7 312.66-8.8L312.66-8.8 312.66-12.5Q312.66-14.2 313.14-15.25 313.61-16.3 314.36-16.82 315.11-17.35 315.91-17.55 316.71-17.75 317.36-17.75L317.36-17.75Q318.96-17.75 320.51-17.4 322.06-17.05 323.56-16.45 325.06-15.85 326.36-15.15ZM351.76 3.2L351.76 3.2 351.76-25 348.91-25 348.91-22.65Q347.81-23.55 346.63-24.18 345.46-24.8 344.23-25.13 343.01-25.45 341.81-25.5L341.81-25.5Q339.06-25.65 337.16-24.68 335.26-23.7 334.26-21.83 333.26-19.95 333.26-17.3L333.26-17.3 333.26-8.8Q333.26-4.25 335.46-1.83 337.66 0.6 341.86 0.6L341.86 0.6Q343.01 0.6 344.08 0.33 345.16 0.05 346.11-0.45 347.06-0.95 347.78-1.63 348.51-2.3 348.91-3.05L348.91-3.05 348.91 3.15Q348.91 4.15 348.68 4.98 348.46 5.8 348.06 6.45 347.66 7.1 347.03 7.58 346.41 8.05 345.56 8.4L345.56 8.4 346.36 10.55Q348.26 9.95 349.46 9 350.66 8.05 351.21 6.63 351.76 5.2 351.76 3.2ZM348.91-19.65L348.91-19.65 348.91-8.7Q348.91-7.1 348.38-5.85 347.86-4.6 346.91-3.75 345.96-2.9 344.71-2.45 343.46-2 342.01-2L342.01-2Q340.11-2 338.78-2.7 337.46-3.4 336.76-4.8 336.06-6.2 336.06-8.35L336.06-8.35 336.06-17.15Q336.06-18.85 336.61-20.03 337.16-21.2 338.08-21.88 339.01-22.55 340.13-22.83 341.26-23.1 342.41-23L342.41-23Q343.21-22.95 344.11-22.7 345.01-22.45 345.93-22.03 346.86-21.6 347.63-21 348.41-20.4 348.91-19.65ZM355.76-25.05L355.76 0 358.61 0 358.61-25.05 355.76-25.05ZM357.21-35.5L357.21-35.5Q356.56-35.5 356.03-35 355.51-34.5 355.51-33.8L355.51-33.8Q355.51-33.15 356.03-32.65 356.56-32.15 357.21-32.15L357.21-32.15Q357.91-32.15 358.41-32.65 358.91-33.15 358.91-33.8L358.91-33.8Q358.91-34.5 358.41-35 357.91-35.5 357.21-35.5ZM378.2-17.1L378.2-17.1 378.2 0 380.95 0 380.95-17.25Q380.95-18.85 380.58-20.13 380.2-21.4 379.48-22.4 378.75-23.4 377.7-24.1 376.65-24.8 375.28-25.15 373.9-25.5 372.25-25.5L372.25-25.5Q371-25.5 369.78-25.23 368.55-24.95 367.43-24.48 366.3-24 365.35-23.35L365.35-23.35 365.35-25.05 362.5-25.05 362.5 0 365.35 0 365.35-21.25Q366.4-21.85 367.4-22.23 368.4-22.6 369.48-22.8 370.55-23 371.7-23L371.7-23Q372.9-23 374.05-22.7 375.2-22.4 376.15-21.73 377.1-21.05 377.65-19.93 378.2-18.8 378.2-17.1ZM401.35-17.5L401.35-17.5Q400.2-18.2 398.78-18.8 397.35-19.4 395.8-19.78 394.25-20.15 392.6-20.15L392.6-20.15Q391.1-20.15 389.73-19.75 388.35-19.35 387.25-18.48 386.15-17.6 385.53-16.15 384.9-14.7 384.9-12.6L384.9-12.6 384.9-8.45Q384.9-5.7 385.78-3.9 386.65-2.1 388.18-1.13 389.7-0.15 391.78 0.2 393.85 0.55 396.25 0.5L396.25 0.5Q397 0.5 398.03 0.45 399.05 0.4 400.13 0.33 401.2 0.25 402.13 0.18 403.05 0.1 403.63 0.05 404.2 0 404.15 0L404.15 0 404.15-14.4Q404.15-17.5 403.65-19.63 403.15-21.75 401.98-23.03 400.8-24.3 398.8-24.88 396.8-25.45 393.75-25.45L393.75-25.45 393.65-23.3Q395.15-23.3 396.55-23.08 397.95-22.85 399.03-22.25 400.1-21.65 400.73-20.5 401.35-19.35 401.35-17.5ZM401.35-15.15L401.35-15.15 401.35-2.3Q401.35-2.3 401.13-2.27 400.9-2.25 400.45-2.23 400-2.2 399.35-2.13 398.7-2.05 397.88-2 397.05-1.95 396.05-1.9L396.05-1.9Q393.55-1.8 391.9-2.18 390.25-2.55 389.33-3.43 388.4-4.3 388.03-5.65 387.65-7 387.65-8.8L387.65-8.8 387.65-12.5Q387.65-14.2 388.13-15.25 388.6-16.3 389.35-16.82 390.1-17.35 390.9-17.55 391.7-17.75 392.35-17.75L392.35-17.75Q393.95-17.75 395.5-17.4 397.05-17.05 398.55-16.45 400.05-15.85 401.35-15.15ZM411.15-6.6L411.15-6.6 411.15-22.4 416-22.4 417.2-25 411.15-25 411.15-35 408.35-35 408.35-6.6Q408.35-3.7 409.6-1.95 410.85-0.2 413.6 0.65L413.6 0.65 414.45-1.5Q413.35-1.9 412.62-2.58 411.9-3.25 411.52-4.28 411.15-5.3 411.15-6.6ZM420.75-25.05L420.75 0 423.6 0 423.6-25.05 420.75-25.05ZM422.2-35.5L422.2-35.5Q421.55-35.5 421.02-35 420.5-34.5 420.5-33.8L420.5-33.8Q420.5-33.15 421.02-32.65 421.55-32.15 422.2-32.15L422.2-32.15Q422.9-32.15 423.4-32.65 423.9-33.15 423.9-33.8L423.9-33.8Q423.9-34.5 423.4-35 422.9-35.5 422.2-35.5ZM445.84-9.25L445.84-9.25 445.84-15.8Q445.84-20.4 443.49-23 441.14-25.6 436.69-25.6L436.69-25.6Q433.74-25.6 431.64-24.48 429.54-23.35 428.44-21.18 427.34-19 427.34-15.8L427.34-15.8 427.34-9.25Q427.34-6.55 428.39-4.35 429.44-2.15 431.57-0.83 433.69 0.5 436.79 0.5L436.79 0.5Q441.34 0.5 443.59-2.18 445.84-4.85 445.84-9.25ZM443.04-15.8L443.04-15.8 443.04-8.75Q443.04-6.7 442.37-5.18 441.69-3.65 440.29-2.83 438.89-2 436.79-2L436.79-2Q434.79-2 433.29-2.85 431.79-3.7 430.97-5.23 430.14-6.75 430.14-8.75L430.14-8.75 430.14-15.8Q430.14-18.2 430.89-19.83 431.64-21.45 433.12-22.28 434.59-23.1 436.79-23.1L436.79-23.1Q438.99-23.1 440.37-22.28 441.74-21.45 442.39-19.83 443.04-18.2 443.04-15.8ZM465.59-17.1L465.59-17.1 465.59 0 468.34 0 468.34-17.25Q468.34-18.85 467.97-20.13 467.59-21.4 466.87-22.4 466.14-23.4 465.09-24.1 464.04-24.8 462.67-25.15 461.29-25.5 459.64-25.5L459.64-25.5Q458.39-25.5 457.17-25.23 455.94-24.95 454.82-24.48 453.69-24 452.74-23.35L452.74-23.35 452.74-25.05 449.89-25.05 449.89 0 452.74 0 452.74-21.25Q453.79-21.85 454.79-22.23 455.79-22.6 456.87-22.8 457.94-23 459.09-23L459.09-23Q460.29-23 461.44-22.7 462.59-22.4 463.54-21.73 464.49-21.05 465.04-19.93 465.59-18.8 465.59-17.1Z" opacity="1" transform="matrix(1,0,0,1,0,0)" fill="#c1c1c1" class="slogan-text-1" data-fill-palette-color="secondary" id="text-1"></path></svg></g></svg></g></svg></g></svg></g></svg></g><defs></defs></svg><rect width="395.52" height="149.4759659947029" fill="none" stroke="none" visibility="hidden"></rect></g></svg></g></svg>